<svg width="1024" height="1024" viewBox="0 0 1024 1024" fill="none" xmlns="http://www.w3.org/2000/svg">
<rect width="1024" height="1024" rx="180" fill="white"/>
<path d="M354.922 614.199H323.049C312.422 614.199 303.725 605.507 303.725 594.887V592.385C303.725 581.764 312.422 573.072 323.049 573.072H354.922C365.548 573.072 374.246 581.764 374.246 592.385V594.887C374.246 605.507 365.548 614.199 354.922 614.199Z" fill="#82FF9E"/>
<path d="M354.85 833.255H323.113C312.446 833.255 303.725 824.531 303.725 813.87V811.209C303.725 800.557 312.446 791.833 323.113 791.833H354.85C365.516 791.833 374.246 800.557 374.246 811.209V813.87C374.246 824.531 365.516 833.255 354.85 833.255Z" fill="#F5F740"/>
<path d="M535.686 614.199H403.205C392.578 614.199 383.881 605.507 383.881 594.887V592.385C383.881 581.764 392.578 573.072 403.205 573.072H535.686C546.313 573.072 555.011 581.764 555.011 592.385V594.887C555.011 605.507 546.313 614.199 535.686 614.199Z" fill="#82FF9E"/>
<path d="M207.302 523.773H526.044C540.832 523.773 552.934 533.31 552.934 544.967C552.934 556.631 540.832 566.168 526.044 566.168H207.302C192.506 566.168 180.404 556.631 180.404 544.967C180.404 533.31 192.506 523.773 207.302 523.773Z" fill="#82FF9E"/>
<path d="M308.699 715.877H268.807C257.486 715.877 248.23 706.627 248.23 695.313C248.23 684 257.486 674.75 268.807 674.75H308.699C320.019 674.75 329.275 684 329.275 695.313C329.275 706.627 320.019 715.877 308.699 715.877Z" fill="#5C1FA6"/>
<path d="M532.557 715.877H355.13C343.809 715.877 334.554 706.627 334.554 695.313C334.554 684 343.809 674.75 355.13 674.75H532.557C543.878 674.75 553.134 684 553.134 695.313C553.134 706.627 543.878 715.877 532.557 715.877Z" fill="#5C1FA6"/>
<path d="M529.447 833.255H397.11C386.443 833.255 377.714 824.531 377.714 813.87V811.209C377.714 800.549 386.443 791.833 397.11 791.833H529.447C540.114 791.833 548.844 800.549 548.844 811.209V813.87C548.844 824.531 540.114 833.255 529.447 833.255Z" fill="#F5F740"/>
<path d="M535.213 669.66H102.326C91.0056 669.66 81.75 660.41 81.75 649.096C81.75 637.782 91.0056 628.532 102.326 628.532H535.213C546.533 628.532 555.789 637.782 555.789 649.096C555.789 660.41 546.533 669.66 535.213 669.66Z" fill="#5C1FA6"/>
<path d="M536.476 780.581H150.553C139.839 780.581 131.077 771.817 131.077 761.109V758.917C131.077 748.209 139.839 739.453 150.553 739.453H536.476C547.19 739.453 555.96 748.217 555.96 758.917V761.109C555.96 771.817 547.19 780.581 536.476 780.581Z" fill="#F5F740"/>
<path d="M712.564 200.254C839.664 200.254 943.485 303.121 943.485 431.037C943.485 558.954 839.664 661.821 712.564 661.821C666.916 661.821 631.113 650.197 599.79 627.832V833.566H482.536V431.037C482.536 303.121 585.464 200.254 712.564 200.254ZM827.131 431.037C827.131 364.844 779.689 313.861 713.457 313.861C647.224 313.861 597.996 364.844 597.996 431.037C597.996 497.231 647.224 548.214 713.457 548.214C779.689 548.214 827.131 497.231 827.131 431.037Z" fill="#0B0B0B"/>
</svg>
